<mxfile host="app.diagrams.net" agent="Mozilla/5.0 (Windows NT 10.0; Win64; x64) AppleWebKit/537.36 (KHTML, like Gecko) Chrome/134.0.0.0 Safari/537.36 Edg/134.0.0.0" version="26.2.2">
  <diagram name="第 1 页" id="hIOyyQkoDVXEMhmXhoQw">
    <mxGraphModel dx="1566" dy="936" grid="1" gridSize="10" guides="1" tooltips="1" connect="1" arrows="1" fold="1" page="1" pageScale="1" pageWidth="827" pageHeight="1169" math="0" shadow="0">
      <root>
        <mxCell id="0" />
        <mxCell id="1" parent="0" />
        <mxCell id="DMbctKs90b7bYzsLxnpM-106" value="" style="group" vertex="1" connectable="0" parent="1">
          <mxGeometry x="569" y="260" width="130" height="130" as="geometry" />
        </mxCell>
        <mxCell id="DMbctKs90b7bYzsLxnpM-107" value="" style="rounded=0;whiteSpace=wrap;html=1;fillColor=#dae8fc;strokeColor=#6c8ebf;" vertex="1" parent="DMbctKs90b7bYzsLxnpM-106">
          <mxGeometry width="30" height="30" as="geometry" />
        </mxCell>
        <mxCell id="DMbctKs90b7bYzsLxnpM-108" value="" style="rounded=0;whiteSpace=wrap;html=1;fillColor=#dae8fc;strokeColor=#6c8ebf;" vertex="1" parent="DMbctKs90b7bYzsLxnpM-106">
          <mxGeometry x="30" width="30" height="30" as="geometry" />
        </mxCell>
        <mxCell id="DMbctKs90b7bYzsLxnpM-109" value="" style="rounded=0;whiteSpace=wrap;html=1;fillColor=#dae8fc;strokeColor=#6c8ebf;" vertex="1" parent="DMbctKs90b7bYzsLxnpM-106">
          <mxGeometry y="30" width="30" height="30" as="geometry" />
        </mxCell>
        <mxCell id="DMbctKs90b7bYzsLxnpM-110" value="" style="rounded=0;whiteSpace=wrap;html=1;fillColor=#dae8fc;strokeColor=#6c8ebf;" vertex="1" parent="DMbctKs90b7bYzsLxnpM-106">
          <mxGeometry x="30" y="30" width="30" height="30" as="geometry" />
        </mxCell>
        <mxCell id="DMbctKs90b7bYzsLxnpM-111" value="" style="rounded=0;whiteSpace=wrap;html=1;fillColor=#dae8fc;strokeColor=#6c8ebf;" vertex="1" parent="DMbctKs90b7bYzsLxnpM-106">
          <mxGeometry x="10" y="10" width="30" height="30" as="geometry" />
        </mxCell>
        <mxCell id="DMbctKs90b7bYzsLxnpM-112" value="" style="rounded=0;whiteSpace=wrap;html=1;fillColor=#dae8fc;strokeColor=#6c8ebf;" vertex="1" parent="DMbctKs90b7bYzsLxnpM-106">
          <mxGeometry x="40" y="10" width="30" height="30" as="geometry" />
        </mxCell>
        <mxCell id="DMbctKs90b7bYzsLxnpM-113" value="" style="rounded=0;whiteSpace=wrap;html=1;fillColor=#dae8fc;strokeColor=#6c8ebf;" vertex="1" parent="DMbctKs90b7bYzsLxnpM-106">
          <mxGeometry x="10" y="40" width="30" height="30" as="geometry" />
        </mxCell>
        <mxCell id="DMbctKs90b7bYzsLxnpM-114" value="" style="rounded=0;whiteSpace=wrap;html=1;fillColor=#dae8fc;strokeColor=#6c8ebf;" vertex="1" parent="DMbctKs90b7bYzsLxnpM-106">
          <mxGeometry x="40" y="40" width="30" height="30" as="geometry" />
        </mxCell>
        <mxCell id="DMbctKs90b7bYzsLxnpM-115" value="" style="group" vertex="1" connectable="0" parent="DMbctKs90b7bYzsLxnpM-106">
          <mxGeometry x="20" y="20" width="110" height="110" as="geometry" />
        </mxCell>
        <mxCell id="DMbctKs90b7bYzsLxnpM-116" value="" style="rounded=0;whiteSpace=wrap;html=1;fillColor=#d5e8d4;strokeColor=#82b366;" vertex="1" parent="DMbctKs90b7bYzsLxnpM-115">
          <mxGeometry width="30" height="30" as="geometry" />
        </mxCell>
        <mxCell id="DMbctKs90b7bYzsLxnpM-117" value="" style="rounded=0;whiteSpace=wrap;html=1;fillColor=#d5e8d4;strokeColor=#82b366;" vertex="1" parent="DMbctKs90b7bYzsLxnpM-115">
          <mxGeometry x="30" width="30" height="30" as="geometry" />
        </mxCell>
        <mxCell id="DMbctKs90b7bYzsLxnpM-118" value="" style="rounded=0;whiteSpace=wrap;html=1;fillColor=#d5e8d4;strokeColor=#82b366;" vertex="1" parent="DMbctKs90b7bYzsLxnpM-115">
          <mxGeometry y="30" width="30" height="30" as="geometry" />
        </mxCell>
        <mxCell id="DMbctKs90b7bYzsLxnpM-119" value="" style="rounded=0;whiteSpace=wrap;html=1;fillColor=#d5e8d4;strokeColor=#82b366;" vertex="1" parent="DMbctKs90b7bYzsLxnpM-115">
          <mxGeometry x="30" y="30" width="30" height="30" as="geometry" />
        </mxCell>
        <mxCell id="DMbctKs90b7bYzsLxnpM-120" value="" style="rounded=0;whiteSpace=wrap;html=1;fillColor=#d5e8d4;strokeColor=#82b366;" vertex="1" parent="DMbctKs90b7bYzsLxnpM-115">
          <mxGeometry x="10" y="10" width="30" height="30" as="geometry" />
        </mxCell>
        <mxCell id="DMbctKs90b7bYzsLxnpM-121" value="" style="rounded=0;whiteSpace=wrap;html=1;fillColor=#d5e8d4;strokeColor=#82b366;" vertex="1" parent="DMbctKs90b7bYzsLxnpM-115">
          <mxGeometry x="40" y="10" width="30" height="30" as="geometry" />
        </mxCell>
        <mxCell id="DMbctKs90b7bYzsLxnpM-122" value="" style="rounded=0;whiteSpace=wrap;html=1;fillColor=#d5e8d4;strokeColor=#82b366;" vertex="1" parent="DMbctKs90b7bYzsLxnpM-115">
          <mxGeometry x="10" y="40" width="30" height="30" as="geometry" />
        </mxCell>
        <mxCell id="DMbctKs90b7bYzsLxnpM-123" value="" style="rounded=0;whiteSpace=wrap;html=1;fillColor=#d5e8d4;strokeColor=#82b366;" vertex="1" parent="DMbctKs90b7bYzsLxnpM-115">
          <mxGeometry x="40" y="40" width="30" height="30" as="geometry" />
        </mxCell>
        <mxCell id="DMbctKs90b7bYzsLxnpM-124" value="" style="group" vertex="1" connectable="0" parent="DMbctKs90b7bYzsLxnpM-115">
          <mxGeometry x="20" y="20" width="90" height="90" as="geometry" />
        </mxCell>
        <mxCell id="DMbctKs90b7bYzsLxnpM-125" value="" style="rounded=0;whiteSpace=wrap;html=1;fillColor=#ffe6cc;strokeColor=#d79b00;" vertex="1" parent="DMbctKs90b7bYzsLxnpM-124">
          <mxGeometry width="30" height="30" as="geometry" />
        </mxCell>
        <mxCell id="DMbctKs90b7bYzsLxnpM-126" value="" style="rounded=0;whiteSpace=wrap;html=1;fillColor=#ffe6cc;strokeColor=#d79b00;" vertex="1" parent="DMbctKs90b7bYzsLxnpM-124">
          <mxGeometry x="30" width="30" height="30" as="geometry" />
        </mxCell>
        <mxCell id="DMbctKs90b7bYzsLxnpM-127" value="" style="rounded=0;whiteSpace=wrap;html=1;fillColor=#ffe6cc;strokeColor=#d79b00;" vertex="1" parent="DMbctKs90b7bYzsLxnpM-124">
          <mxGeometry y="30" width="30" height="30" as="geometry" />
        </mxCell>
        <mxCell id="DMbctKs90b7bYzsLxnpM-128" value="" style="rounded=0;whiteSpace=wrap;html=1;fillColor=#ffe6cc;strokeColor=#d79b00;" vertex="1" parent="DMbctKs90b7bYzsLxnpM-124">
          <mxGeometry x="30" y="30" width="30" height="30" as="geometry" />
        </mxCell>
        <mxCell id="DMbctKs90b7bYzsLxnpM-129" value="" style="rounded=0;whiteSpace=wrap;html=1;fillColor=#ffe6cc;strokeColor=#d79b00;" vertex="1" parent="DMbctKs90b7bYzsLxnpM-124">
          <mxGeometry x="10" y="10" width="30" height="30" as="geometry" />
        </mxCell>
        <mxCell id="DMbctKs90b7bYzsLxnpM-130" value="" style="rounded=0;whiteSpace=wrap;html=1;fillColor=#ffe6cc;strokeColor=#d79b00;" vertex="1" parent="DMbctKs90b7bYzsLxnpM-124">
          <mxGeometry x="40" y="10" width="30" height="30" as="geometry" />
        </mxCell>
        <mxCell id="DMbctKs90b7bYzsLxnpM-131" value="" style="rounded=0;whiteSpace=wrap;html=1;fillColor=#ffe6cc;strokeColor=#d79b00;" vertex="1" parent="DMbctKs90b7bYzsLxnpM-124">
          <mxGeometry x="10" y="40" width="30" height="30" as="geometry" />
        </mxCell>
        <mxCell id="DMbctKs90b7bYzsLxnpM-132" value="" style="rounded=0;whiteSpace=wrap;html=1;fillColor=#ffe6cc;strokeColor=#d79b00;" vertex="1" parent="DMbctKs90b7bYzsLxnpM-124">
          <mxGeometry x="40" y="40" width="30" height="30" as="geometry" />
        </mxCell>
        <mxCell id="DMbctKs90b7bYzsLxnpM-133" value="" style="group" vertex="1" connectable="0" parent="DMbctKs90b7bYzsLxnpM-124">
          <mxGeometry x="20" y="20" width="70" height="70" as="geometry" />
        </mxCell>
        <mxCell id="DMbctKs90b7bYzsLxnpM-134" value="" style="rounded=0;whiteSpace=wrap;html=1;fillColor=#f8cecc;strokeColor=#b85450;" vertex="1" parent="DMbctKs90b7bYzsLxnpM-133">
          <mxGeometry width="30" height="30" as="geometry" />
        </mxCell>
        <mxCell id="DMbctKs90b7bYzsLxnpM-135" value="" style="rounded=0;whiteSpace=wrap;html=1;fillColor=#f8cecc;strokeColor=#b85450;" vertex="1" parent="DMbctKs90b7bYzsLxnpM-133">
          <mxGeometry x="30" width="30" height="30" as="geometry" />
        </mxCell>
        <mxCell id="DMbctKs90b7bYzsLxnpM-136" value="" style="rounded=0;whiteSpace=wrap;html=1;fillColor=#f8cecc;strokeColor=#b85450;" vertex="1" parent="DMbctKs90b7bYzsLxnpM-133">
          <mxGeometry y="30" width="30" height="30" as="geometry" />
        </mxCell>
        <mxCell id="DMbctKs90b7bYzsLxnpM-137" value="" style="rounded=0;whiteSpace=wrap;html=1;fillColor=#f8cecc;strokeColor=#b85450;" vertex="1" parent="DMbctKs90b7bYzsLxnpM-133">
          <mxGeometry x="30" y="30" width="30" height="30" as="geometry" />
        </mxCell>
        <mxCell id="DMbctKs90b7bYzsLxnpM-138" value="" style="rounded=0;whiteSpace=wrap;html=1;fillColor=#f8cecc;strokeColor=#b85450;" vertex="1" parent="DMbctKs90b7bYzsLxnpM-133">
          <mxGeometry x="10" y="10" width="30" height="30" as="geometry" />
        </mxCell>
        <mxCell id="DMbctKs90b7bYzsLxnpM-139" value="" style="rounded=0;whiteSpace=wrap;html=1;fillColor=#f8cecc;strokeColor=#b85450;" vertex="1" parent="DMbctKs90b7bYzsLxnpM-133">
          <mxGeometry x="40" y="10" width="30" height="30" as="geometry" />
        </mxCell>
        <mxCell id="DMbctKs90b7bYzsLxnpM-140" value="" style="rounded=0;whiteSpace=wrap;html=1;fillColor=#f8cecc;strokeColor=#b85450;" vertex="1" parent="DMbctKs90b7bYzsLxnpM-133">
          <mxGeometry x="10" y="40" width="30" height="30" as="geometry" />
        </mxCell>
        <mxCell id="DMbctKs90b7bYzsLxnpM-141" value="" style="rounded=0;whiteSpace=wrap;html=1;fillColor=#f8cecc;strokeColor=#b85450;" vertex="1" parent="DMbctKs90b7bYzsLxnpM-133">
          <mxGeometry x="40" y="40" width="30" height="30" as="geometry" />
        </mxCell>
        <mxCell id="DMbctKs90b7bYzsLxnpM-143" value="" style="group" vertex="1" connectable="0" parent="1">
          <mxGeometry x="20" y="260" width="130" height="130" as="geometry" />
        </mxCell>
        <mxCell id="DMbctKs90b7bYzsLxnpM-1" value="" style="rounded=0;whiteSpace=wrap;html=1;fillColor=#dae8fc;strokeColor=#6c8ebf;" vertex="1" parent="DMbctKs90b7bYzsLxnpM-143">
          <mxGeometry width="30" height="30" as="geometry" />
        </mxCell>
        <mxCell id="DMbctKs90b7bYzsLxnpM-2" value="" style="rounded=0;whiteSpace=wrap;html=1;fillColor=#d5e8d4;strokeColor=#82b366;" vertex="1" parent="DMbctKs90b7bYzsLxnpM-143">
          <mxGeometry x="30" width="30" height="30" as="geometry" />
        </mxCell>
        <mxCell id="DMbctKs90b7bYzsLxnpM-3" value="" style="rounded=0;whiteSpace=wrap;html=1;fillColor=#f8cecc;strokeColor=#b85450;" vertex="1" parent="DMbctKs90b7bYzsLxnpM-143">
          <mxGeometry x="30" y="30" width="30" height="30" as="geometry" />
        </mxCell>
        <mxCell id="DMbctKs90b7bYzsLxnpM-4" value="" style="rounded=0;whiteSpace=wrap;html=1;fillColor=#ffe6cc;strokeColor=#d79b00;" vertex="1" parent="DMbctKs90b7bYzsLxnpM-143">
          <mxGeometry y="30" width="30" height="30" as="geometry" />
        </mxCell>
        <mxCell id="DMbctKs90b7bYzsLxnpM-9" value="" style="rounded=0;whiteSpace=wrap;html=1;fillColor=#dae8fc;strokeColor=#6c8ebf;" vertex="1" parent="DMbctKs90b7bYzsLxnpM-143">
          <mxGeometry x="60" width="30" height="30" as="geometry" />
        </mxCell>
        <mxCell id="DMbctKs90b7bYzsLxnpM-10" value="" style="rounded=0;whiteSpace=wrap;html=1;fillColor=#d5e8d4;strokeColor=#82b366;" vertex="1" parent="DMbctKs90b7bYzsLxnpM-143">
          <mxGeometry x="90" width="30" height="30" as="geometry" />
        </mxCell>
        <mxCell id="DMbctKs90b7bYzsLxnpM-11" value="" style="rounded=0;whiteSpace=wrap;html=1;fillColor=#f8cecc;strokeColor=#b85450;" vertex="1" parent="DMbctKs90b7bYzsLxnpM-143">
          <mxGeometry x="90" y="30" width="30" height="30" as="geometry" />
        </mxCell>
        <mxCell id="DMbctKs90b7bYzsLxnpM-12" value="" style="rounded=0;whiteSpace=wrap;html=1;fillColor=#ffe6cc;strokeColor=#d79b00;" vertex="1" parent="DMbctKs90b7bYzsLxnpM-143">
          <mxGeometry x="60" y="30" width="30" height="30" as="geometry" />
        </mxCell>
        <mxCell id="DMbctKs90b7bYzsLxnpM-13" value="" style="rounded=0;whiteSpace=wrap;html=1;fillColor=#dae8fc;strokeColor=#6c8ebf;" vertex="1" parent="DMbctKs90b7bYzsLxnpM-143">
          <mxGeometry y="60" width="30" height="30" as="geometry" />
        </mxCell>
        <mxCell id="DMbctKs90b7bYzsLxnpM-14" value="" style="rounded=0;whiteSpace=wrap;html=1;fillColor=#d5e8d4;strokeColor=#82b366;" vertex="1" parent="DMbctKs90b7bYzsLxnpM-143">
          <mxGeometry x="30" y="60" width="30" height="30" as="geometry" />
        </mxCell>
        <mxCell id="DMbctKs90b7bYzsLxnpM-15" value="" style="rounded=0;whiteSpace=wrap;html=1;fillColor=#f8cecc;strokeColor=#b85450;" vertex="1" parent="DMbctKs90b7bYzsLxnpM-143">
          <mxGeometry x="30" y="90" width="30" height="30" as="geometry" />
        </mxCell>
        <mxCell id="DMbctKs90b7bYzsLxnpM-16" value="" style="rounded=0;whiteSpace=wrap;html=1;fillColor=#ffe6cc;strokeColor=#d79b00;" vertex="1" parent="DMbctKs90b7bYzsLxnpM-143">
          <mxGeometry y="90" width="30" height="30" as="geometry" />
        </mxCell>
        <mxCell id="DMbctKs90b7bYzsLxnpM-17" value="" style="rounded=0;whiteSpace=wrap;html=1;fillColor=#dae8fc;strokeColor=#6c8ebf;" vertex="1" parent="DMbctKs90b7bYzsLxnpM-143">
          <mxGeometry x="60" y="60" width="30" height="30" as="geometry" />
        </mxCell>
        <mxCell id="DMbctKs90b7bYzsLxnpM-18" value="" style="rounded=0;whiteSpace=wrap;html=1;fillColor=#d5e8d4;strokeColor=#82b366;" vertex="1" parent="DMbctKs90b7bYzsLxnpM-143">
          <mxGeometry x="90" y="60" width="30" height="30" as="geometry" />
        </mxCell>
        <mxCell id="DMbctKs90b7bYzsLxnpM-19" value="" style="rounded=0;whiteSpace=wrap;html=1;fillColor=#f8cecc;strokeColor=#b85450;" vertex="1" parent="DMbctKs90b7bYzsLxnpM-143">
          <mxGeometry x="90" y="90" width="30" height="30" as="geometry" />
        </mxCell>
        <mxCell id="DMbctKs90b7bYzsLxnpM-20" value="" style="rounded=0;whiteSpace=wrap;html=1;fillColor=#ffe6cc;strokeColor=#d79b00;" vertex="1" parent="DMbctKs90b7bYzsLxnpM-143">
          <mxGeometry x="60" y="90" width="30" height="30" as="geometry" />
        </mxCell>
        <mxCell id="DMbctKs90b7bYzsLxnpM-39" value="" style="rounded=0;whiteSpace=wrap;html=1;fillColor=#dae8fc;strokeColor=#6c8ebf;" vertex="1" parent="DMbctKs90b7bYzsLxnpM-143">
          <mxGeometry x="10" y="10" width="30" height="30" as="geometry" />
        </mxCell>
        <mxCell id="DMbctKs90b7bYzsLxnpM-40" value="" style="rounded=0;whiteSpace=wrap;html=1;fillColor=#d5e8d4;strokeColor=#82b366;" vertex="1" parent="DMbctKs90b7bYzsLxnpM-143">
          <mxGeometry x="40" y="10" width="30" height="30" as="geometry" />
        </mxCell>
        <mxCell id="DMbctKs90b7bYzsLxnpM-41" value="" style="rounded=0;whiteSpace=wrap;html=1;fillColor=#f8cecc;strokeColor=#b85450;" vertex="1" parent="DMbctKs90b7bYzsLxnpM-143">
          <mxGeometry x="40" y="40" width="30" height="30" as="geometry" />
        </mxCell>
        <mxCell id="DMbctKs90b7bYzsLxnpM-42" value="" style="rounded=0;whiteSpace=wrap;html=1;fillColor=#ffe6cc;strokeColor=#d79b00;" vertex="1" parent="DMbctKs90b7bYzsLxnpM-143">
          <mxGeometry x="10" y="40" width="30" height="30" as="geometry" />
        </mxCell>
        <mxCell id="DMbctKs90b7bYzsLxnpM-43" value="" style="rounded=0;whiteSpace=wrap;html=1;fillColor=#dae8fc;strokeColor=#6c8ebf;" vertex="1" parent="DMbctKs90b7bYzsLxnpM-143">
          <mxGeometry x="70" y="10" width="30" height="30" as="geometry" />
        </mxCell>
        <mxCell id="DMbctKs90b7bYzsLxnpM-44" value="" style="rounded=0;whiteSpace=wrap;html=1;fillColor=#d5e8d4;strokeColor=#82b366;" vertex="1" parent="DMbctKs90b7bYzsLxnpM-143">
          <mxGeometry x="100" y="10" width="30" height="30" as="geometry" />
        </mxCell>
        <mxCell id="DMbctKs90b7bYzsLxnpM-45" value="" style="rounded=0;whiteSpace=wrap;html=1;fillColor=#f8cecc;strokeColor=#b85450;" vertex="1" parent="DMbctKs90b7bYzsLxnpM-143">
          <mxGeometry x="100" y="40" width="30" height="30" as="geometry" />
        </mxCell>
        <mxCell id="DMbctKs90b7bYzsLxnpM-46" value="" style="rounded=0;whiteSpace=wrap;html=1;fillColor=#ffe6cc;strokeColor=#d79b00;" vertex="1" parent="DMbctKs90b7bYzsLxnpM-143">
          <mxGeometry x="70" y="40" width="30" height="30" as="geometry" />
        </mxCell>
        <mxCell id="DMbctKs90b7bYzsLxnpM-47" value="" style="rounded=0;whiteSpace=wrap;html=1;fillColor=#dae8fc;strokeColor=#6c8ebf;" vertex="1" parent="DMbctKs90b7bYzsLxnpM-143">
          <mxGeometry x="10" y="70" width="30" height="30" as="geometry" />
        </mxCell>
        <mxCell id="DMbctKs90b7bYzsLxnpM-48" value="" style="rounded=0;whiteSpace=wrap;html=1;fillColor=#d5e8d4;strokeColor=#82b366;" vertex="1" parent="DMbctKs90b7bYzsLxnpM-143">
          <mxGeometry x="40" y="70" width="30" height="30" as="geometry" />
        </mxCell>
        <mxCell id="DMbctKs90b7bYzsLxnpM-49" value="" style="rounded=0;whiteSpace=wrap;html=1;fillColor=#f8cecc;strokeColor=#b85450;" vertex="1" parent="DMbctKs90b7bYzsLxnpM-143">
          <mxGeometry x="40" y="100" width="30" height="30" as="geometry" />
        </mxCell>
        <mxCell id="DMbctKs90b7bYzsLxnpM-50" value="" style="rounded=0;whiteSpace=wrap;html=1;fillColor=#ffe6cc;strokeColor=#d79b00;" vertex="1" parent="DMbctKs90b7bYzsLxnpM-143">
          <mxGeometry x="10" y="100" width="30" height="30" as="geometry" />
        </mxCell>
        <mxCell id="DMbctKs90b7bYzsLxnpM-51" value="" style="rounded=0;whiteSpace=wrap;html=1;fillColor=#dae8fc;strokeColor=#6c8ebf;" vertex="1" parent="DMbctKs90b7bYzsLxnpM-143">
          <mxGeometry x="70" y="70" width="30" height="30" as="geometry" />
        </mxCell>
        <mxCell id="DMbctKs90b7bYzsLxnpM-52" value="" style="rounded=0;whiteSpace=wrap;html=1;fillColor=#d5e8d4;strokeColor=#82b366;" vertex="1" parent="DMbctKs90b7bYzsLxnpM-143">
          <mxGeometry x="100" y="70" width="30" height="30" as="geometry" />
        </mxCell>
        <mxCell id="DMbctKs90b7bYzsLxnpM-53" value="" style="rounded=0;whiteSpace=wrap;html=1;fillColor=#f8cecc;strokeColor=#b85450;" vertex="1" parent="DMbctKs90b7bYzsLxnpM-143">
          <mxGeometry x="100" y="100" width="30" height="30" as="geometry" />
        </mxCell>
        <mxCell id="DMbctKs90b7bYzsLxnpM-54" value="" style="rounded=0;whiteSpace=wrap;html=1;fillColor=#ffe6cc;strokeColor=#d79b00;" vertex="1" parent="DMbctKs90b7bYzsLxnpM-143">
          <mxGeometry x="70" y="100" width="30" height="30" as="geometry" />
        </mxCell>
        <mxCell id="DMbctKs90b7bYzsLxnpM-144" value="" style="group" vertex="1" connectable="0" parent="1">
          <mxGeometry x="280" y="242.5" width="160" height="165" as="geometry" />
        </mxCell>
        <mxCell id="DMbctKs90b7bYzsLxnpM-102" value="" style="group" vertex="1" connectable="0" parent="DMbctKs90b7bYzsLxnpM-144">
          <mxGeometry width="70" height="70" as="geometry" />
        </mxCell>
        <mxCell id="DMbctKs90b7bYzsLxnpM-21" value="" style="rounded=0;whiteSpace=wrap;html=1;fillColor=#dae8fc;strokeColor=#6c8ebf;" vertex="1" parent="DMbctKs90b7bYzsLxnpM-102">
          <mxGeometry width="30" height="30" as="geometry" />
        </mxCell>
        <mxCell id="DMbctKs90b7bYzsLxnpM-22" value="" style="rounded=0;whiteSpace=wrap;html=1;fillColor=#dae8fc;strokeColor=#6c8ebf;" vertex="1" parent="DMbctKs90b7bYzsLxnpM-102">
          <mxGeometry x="30" width="30" height="30" as="geometry" />
        </mxCell>
        <mxCell id="DMbctKs90b7bYzsLxnpM-23" value="" style="rounded=0;whiteSpace=wrap;html=1;fillColor=#dae8fc;strokeColor=#6c8ebf;" vertex="1" parent="DMbctKs90b7bYzsLxnpM-102">
          <mxGeometry y="30" width="30" height="30" as="geometry" />
        </mxCell>
        <mxCell id="DMbctKs90b7bYzsLxnpM-24" value="" style="rounded=0;whiteSpace=wrap;html=1;fillColor=#dae8fc;strokeColor=#6c8ebf;" vertex="1" parent="DMbctKs90b7bYzsLxnpM-102">
          <mxGeometry x="30" y="30" width="30" height="30" as="geometry" />
        </mxCell>
        <mxCell id="DMbctKs90b7bYzsLxnpM-55" value="" style="rounded=0;whiteSpace=wrap;html=1;fillColor=#dae8fc;strokeColor=#6c8ebf;" vertex="1" parent="DMbctKs90b7bYzsLxnpM-102">
          <mxGeometry x="10" y="10" width="30" height="30" as="geometry" />
        </mxCell>
        <mxCell id="DMbctKs90b7bYzsLxnpM-56" value="" style="rounded=0;whiteSpace=wrap;html=1;fillColor=#dae8fc;strokeColor=#6c8ebf;" vertex="1" parent="DMbctKs90b7bYzsLxnpM-102">
          <mxGeometry x="40" y="10" width="30" height="30" as="geometry" />
        </mxCell>
        <mxCell id="DMbctKs90b7bYzsLxnpM-57" value="" style="rounded=0;whiteSpace=wrap;html=1;fillColor=#dae8fc;strokeColor=#6c8ebf;" vertex="1" parent="DMbctKs90b7bYzsLxnpM-102">
          <mxGeometry x="10" y="40" width="30" height="30" as="geometry" />
        </mxCell>
        <mxCell id="DMbctKs90b7bYzsLxnpM-58" value="" style="rounded=0;whiteSpace=wrap;html=1;fillColor=#dae8fc;strokeColor=#6c8ebf;" vertex="1" parent="DMbctKs90b7bYzsLxnpM-102">
          <mxGeometry x="40" y="40" width="30" height="30" as="geometry" />
        </mxCell>
        <mxCell id="DMbctKs90b7bYzsLxnpM-103" value="" style="group" vertex="1" connectable="0" parent="DMbctKs90b7bYzsLxnpM-144">
          <mxGeometry x="90" width="70" height="70" as="geometry" />
        </mxCell>
        <mxCell id="DMbctKs90b7bYzsLxnpM-27" value="" style="rounded=0;whiteSpace=wrap;html=1;fillColor=#d5e8d4;strokeColor=#82b366;" vertex="1" parent="DMbctKs90b7bYzsLxnpM-103">
          <mxGeometry width="30" height="30" as="geometry" />
        </mxCell>
        <mxCell id="DMbctKs90b7bYzsLxnpM-28" value="" style="rounded=0;whiteSpace=wrap;html=1;fillColor=#d5e8d4;strokeColor=#82b366;" vertex="1" parent="DMbctKs90b7bYzsLxnpM-103">
          <mxGeometry x="30" width="30" height="30" as="geometry" />
        </mxCell>
        <mxCell id="DMbctKs90b7bYzsLxnpM-29" value="" style="rounded=0;whiteSpace=wrap;html=1;fillColor=#d5e8d4;strokeColor=#82b366;" vertex="1" parent="DMbctKs90b7bYzsLxnpM-103">
          <mxGeometry y="30" width="30" height="30" as="geometry" />
        </mxCell>
        <mxCell id="DMbctKs90b7bYzsLxnpM-30" value="" style="rounded=0;whiteSpace=wrap;html=1;fillColor=#d5e8d4;strokeColor=#82b366;" vertex="1" parent="DMbctKs90b7bYzsLxnpM-103">
          <mxGeometry x="30" y="30" width="30" height="30" as="geometry" />
        </mxCell>
        <mxCell id="DMbctKs90b7bYzsLxnpM-59" value="" style="rounded=0;whiteSpace=wrap;html=1;fillColor=#d5e8d4;strokeColor=#82b366;" vertex="1" parent="DMbctKs90b7bYzsLxnpM-103">
          <mxGeometry x="10" y="10" width="30" height="30" as="geometry" />
        </mxCell>
        <mxCell id="DMbctKs90b7bYzsLxnpM-60" value="" style="rounded=0;whiteSpace=wrap;html=1;fillColor=#d5e8d4;strokeColor=#82b366;" vertex="1" parent="DMbctKs90b7bYzsLxnpM-103">
          <mxGeometry x="40" y="10" width="30" height="30" as="geometry" />
        </mxCell>
        <mxCell id="DMbctKs90b7bYzsLxnpM-61" value="" style="rounded=0;whiteSpace=wrap;html=1;fillColor=#d5e8d4;strokeColor=#82b366;" vertex="1" parent="DMbctKs90b7bYzsLxnpM-103">
          <mxGeometry x="10" y="40" width="30" height="30" as="geometry" />
        </mxCell>
        <mxCell id="DMbctKs90b7bYzsLxnpM-62" value="" style="rounded=0;whiteSpace=wrap;html=1;fillColor=#d5e8d4;strokeColor=#82b366;" vertex="1" parent="DMbctKs90b7bYzsLxnpM-103">
          <mxGeometry x="40" y="40" width="30" height="30" as="geometry" />
        </mxCell>
        <mxCell id="DMbctKs90b7bYzsLxnpM-104" value="" style="group" vertex="1" connectable="0" parent="DMbctKs90b7bYzsLxnpM-144">
          <mxGeometry y="95" width="70" height="70" as="geometry" />
        </mxCell>
        <mxCell id="DMbctKs90b7bYzsLxnpM-31" value="" style="rounded=0;whiteSpace=wrap;html=1;fillColor=#ffe6cc;strokeColor=#d79b00;" vertex="1" parent="DMbctKs90b7bYzsLxnpM-104">
          <mxGeometry width="30" height="30" as="geometry" />
        </mxCell>
        <mxCell id="DMbctKs90b7bYzsLxnpM-32" value="" style="rounded=0;whiteSpace=wrap;html=1;fillColor=#ffe6cc;strokeColor=#d79b00;" vertex="1" parent="DMbctKs90b7bYzsLxnpM-104">
          <mxGeometry x="30" width="30" height="30" as="geometry" />
        </mxCell>
        <mxCell id="DMbctKs90b7bYzsLxnpM-33" value="" style="rounded=0;whiteSpace=wrap;html=1;fillColor=#ffe6cc;strokeColor=#d79b00;" vertex="1" parent="DMbctKs90b7bYzsLxnpM-104">
          <mxGeometry y="30" width="30" height="30" as="geometry" />
        </mxCell>
        <mxCell id="DMbctKs90b7bYzsLxnpM-34" value="" style="rounded=0;whiteSpace=wrap;html=1;fillColor=#ffe6cc;strokeColor=#d79b00;" vertex="1" parent="DMbctKs90b7bYzsLxnpM-104">
          <mxGeometry x="30" y="30" width="30" height="30" as="geometry" />
        </mxCell>
        <mxCell id="DMbctKs90b7bYzsLxnpM-63" value="" style="rounded=0;whiteSpace=wrap;html=1;fillColor=#ffe6cc;strokeColor=#d79b00;" vertex="1" parent="DMbctKs90b7bYzsLxnpM-104">
          <mxGeometry x="10" y="10" width="30" height="30" as="geometry" />
        </mxCell>
        <mxCell id="DMbctKs90b7bYzsLxnpM-64" value="" style="rounded=0;whiteSpace=wrap;html=1;fillColor=#ffe6cc;strokeColor=#d79b00;" vertex="1" parent="DMbctKs90b7bYzsLxnpM-104">
          <mxGeometry x="40" y="10" width="30" height="30" as="geometry" />
        </mxCell>
        <mxCell id="DMbctKs90b7bYzsLxnpM-65" value="" style="rounded=0;whiteSpace=wrap;html=1;fillColor=#ffe6cc;strokeColor=#d79b00;" vertex="1" parent="DMbctKs90b7bYzsLxnpM-104">
          <mxGeometry x="10" y="40" width="30" height="30" as="geometry" />
        </mxCell>
        <mxCell id="DMbctKs90b7bYzsLxnpM-66" value="" style="rounded=0;whiteSpace=wrap;html=1;fillColor=#ffe6cc;strokeColor=#d79b00;" vertex="1" parent="DMbctKs90b7bYzsLxnpM-104">
          <mxGeometry x="40" y="40" width="30" height="30" as="geometry" />
        </mxCell>
        <mxCell id="DMbctKs90b7bYzsLxnpM-105" value="" style="group" vertex="1" connectable="0" parent="DMbctKs90b7bYzsLxnpM-144">
          <mxGeometry x="90" y="95" width="70" height="70" as="geometry" />
        </mxCell>
        <mxCell id="DMbctKs90b7bYzsLxnpM-35" value="" style="rounded=0;whiteSpace=wrap;html=1;fillColor=#f8cecc;strokeColor=#b85450;" vertex="1" parent="DMbctKs90b7bYzsLxnpM-105">
          <mxGeometry width="30" height="30" as="geometry" />
        </mxCell>
        <mxCell id="DMbctKs90b7bYzsLxnpM-36" value="" style="rounded=0;whiteSpace=wrap;html=1;fillColor=#f8cecc;strokeColor=#b85450;" vertex="1" parent="DMbctKs90b7bYzsLxnpM-105">
          <mxGeometry x="30" width="30" height="30" as="geometry" />
        </mxCell>
        <mxCell id="DMbctKs90b7bYzsLxnpM-37" value="" style="rounded=0;whiteSpace=wrap;html=1;fillColor=#f8cecc;strokeColor=#b85450;" vertex="1" parent="DMbctKs90b7bYzsLxnpM-105">
          <mxGeometry y="30" width="30" height="30" as="geometry" />
        </mxCell>
        <mxCell id="DMbctKs90b7bYzsLxnpM-38" value="" style="rounded=0;whiteSpace=wrap;html=1;fillColor=#f8cecc;strokeColor=#b85450;" vertex="1" parent="DMbctKs90b7bYzsLxnpM-105">
          <mxGeometry x="30" y="30" width="30" height="30" as="geometry" />
        </mxCell>
        <mxCell id="DMbctKs90b7bYzsLxnpM-67" value="" style="rounded=0;whiteSpace=wrap;html=1;fillColor=#f8cecc;strokeColor=#b85450;" vertex="1" parent="DMbctKs90b7bYzsLxnpM-105">
          <mxGeometry x="10" y="10" width="30" height="30" as="geometry" />
        </mxCell>
        <mxCell id="DMbctKs90b7bYzsLxnpM-68" value="" style="rounded=0;whiteSpace=wrap;html=1;fillColor=#f8cecc;strokeColor=#b85450;" vertex="1" parent="DMbctKs90b7bYzsLxnpM-105">
          <mxGeometry x="40" y="10" width="30" height="30" as="geometry" />
        </mxCell>
        <mxCell id="DMbctKs90b7bYzsLxnpM-69" value="" style="rounded=0;whiteSpace=wrap;html=1;fillColor=#f8cecc;strokeColor=#b85450;" vertex="1" parent="DMbctKs90b7bYzsLxnpM-105">
          <mxGeometry x="10" y="40" width="30" height="30" as="geometry" />
        </mxCell>
        <mxCell id="DMbctKs90b7bYzsLxnpM-70" value="" style="rounded=0;whiteSpace=wrap;html=1;fillColor=#f8cecc;strokeColor=#b85450;" vertex="1" parent="DMbctKs90b7bYzsLxnpM-105">
          <mxGeometry x="40" y="40" width="30" height="30" as="geometry" />
        </mxCell>
        <mxCell id="DMbctKs90b7bYzsLxnpM-164" value="" style="group" vertex="1" connectable="0" parent="1">
          <mxGeometry x="812" y="269" width="90" height="90" as="geometry" />
        </mxCell>
        <mxCell id="DMbctKs90b7bYzsLxnpM-147" value="" style="rounded=0;whiteSpace=wrap;html=1;fillColor=#e1d5e7;strokeColor=#9673a6;container=0;" vertex="1" parent="DMbctKs90b7bYzsLxnpM-164">
          <mxGeometry width="30" height="30" as="geometry" />
        </mxCell>
        <mxCell id="DMbctKs90b7bYzsLxnpM-148" value="" style="rounded=0;whiteSpace=wrap;html=1;fillColor=#e1d5e7;strokeColor=#9673a6;container=0;" vertex="1" parent="DMbctKs90b7bYzsLxnpM-164">
          <mxGeometry x="30" width="30" height="30" as="geometry" />
        </mxCell>
        <mxCell id="DMbctKs90b7bYzsLxnpM-149" value="" style="rounded=0;whiteSpace=wrap;html=1;fillColor=#e1d5e7;strokeColor=#9673a6;container=0;" vertex="1" parent="DMbctKs90b7bYzsLxnpM-164">
          <mxGeometry y="30" width="30" height="30" as="geometry" />
        </mxCell>
        <mxCell id="DMbctKs90b7bYzsLxnpM-150" value="" style="rounded=0;whiteSpace=wrap;html=1;fillColor=#e1d5e7;strokeColor=#9673a6;container=0;" vertex="1" parent="DMbctKs90b7bYzsLxnpM-164">
          <mxGeometry x="30" y="30" width="30" height="30" as="geometry" />
        </mxCell>
        <mxCell id="DMbctKs90b7bYzsLxnpM-151" value="" style="rounded=0;whiteSpace=wrap;html=1;fillColor=#e1d5e7;strokeColor=#9673a6;container=0;" vertex="1" parent="DMbctKs90b7bYzsLxnpM-164">
          <mxGeometry x="10" y="10" width="30" height="30" as="geometry" />
        </mxCell>
        <mxCell id="DMbctKs90b7bYzsLxnpM-152" value="" style="rounded=0;whiteSpace=wrap;html=1;fillColor=#e1d5e7;strokeColor=#9673a6;container=0;" vertex="1" parent="DMbctKs90b7bYzsLxnpM-164">
          <mxGeometry x="40" y="10" width="30" height="30" as="geometry" />
        </mxCell>
        <mxCell id="DMbctKs90b7bYzsLxnpM-153" value="" style="rounded=0;whiteSpace=wrap;html=1;fillColor=#e1d5e7;strokeColor=#9673a6;container=0;" vertex="1" parent="DMbctKs90b7bYzsLxnpM-164">
          <mxGeometry x="10" y="40" width="30" height="30" as="geometry" />
        </mxCell>
        <mxCell id="DMbctKs90b7bYzsLxnpM-154" value="" style="rounded=0;whiteSpace=wrap;html=1;fillColor=#e1d5e7;strokeColor=#9673a6;container=0;" vertex="1" parent="DMbctKs90b7bYzsLxnpM-164">
          <mxGeometry x="40" y="40" width="30" height="30" as="geometry" />
        </mxCell>
        <mxCell id="DMbctKs90b7bYzsLxnpM-156" value="" style="rounded=0;whiteSpace=wrap;html=1;fillColor=#e1d5e7;strokeColor=#9673a6;container=0;" vertex="1" parent="DMbctKs90b7bYzsLxnpM-164">
          <mxGeometry x="20" y="20" width="30" height="30" as="geometry" />
        </mxCell>
        <mxCell id="DMbctKs90b7bYzsLxnpM-157" value="" style="rounded=0;whiteSpace=wrap;html=1;fillColor=#e1d5e7;strokeColor=#9673a6;container=0;" vertex="1" parent="DMbctKs90b7bYzsLxnpM-164">
          <mxGeometry x="50" y="20" width="30" height="30" as="geometry" />
        </mxCell>
        <mxCell id="DMbctKs90b7bYzsLxnpM-158" value="" style="rounded=0;whiteSpace=wrap;html=1;fillColor=#e1d5e7;strokeColor=#9673a6;container=0;" vertex="1" parent="DMbctKs90b7bYzsLxnpM-164">
          <mxGeometry x="20" y="50" width="30" height="30" as="geometry" />
        </mxCell>
        <mxCell id="DMbctKs90b7bYzsLxnpM-159" value="" style="rounded=0;whiteSpace=wrap;html=1;fillColor=#e1d5e7;strokeColor=#9673a6;container=0;" vertex="1" parent="DMbctKs90b7bYzsLxnpM-164">
          <mxGeometry x="50" y="50" width="30" height="30" as="geometry" />
        </mxCell>
        <mxCell id="DMbctKs90b7bYzsLxnpM-160" value="" style="rounded=0;whiteSpace=wrap;html=1;fillColor=#e1d5e7;strokeColor=#9673a6;container=0;" vertex="1" parent="DMbctKs90b7bYzsLxnpM-164">
          <mxGeometry x="30" y="30" width="30" height="30" as="geometry" />
        </mxCell>
        <mxCell id="DMbctKs90b7bYzsLxnpM-161" value="" style="rounded=0;whiteSpace=wrap;html=1;fillColor=#e1d5e7;strokeColor=#9673a6;container=0;" vertex="1" parent="DMbctKs90b7bYzsLxnpM-164">
          <mxGeometry x="60" y="30" width="30" height="30" as="geometry" />
        </mxCell>
        <mxCell id="DMbctKs90b7bYzsLxnpM-162" value="" style="rounded=0;whiteSpace=wrap;html=1;fillColor=#e1d5e7;strokeColor=#9673a6;container=0;" vertex="1" parent="DMbctKs90b7bYzsLxnpM-164">
          <mxGeometry x="30" y="60" width="30" height="30" as="geometry" />
        </mxCell>
        <mxCell id="DMbctKs90b7bYzsLxnpM-163" value="" style="rounded=0;whiteSpace=wrap;html=1;fillColor=#e1d5e7;strokeColor=#9673a6;container=0;" vertex="1" parent="DMbctKs90b7bYzsLxnpM-164">
          <mxGeometry x="60" y="60" width="30" height="30" as="geometry" />
        </mxCell>
        <mxCell id="DMbctKs90b7bYzsLxnpM-165" value="" style="endArrow=classic;html=1;rounded=0;" edge="1" parent="1">
          <mxGeometry width="50" height="50" relative="1" as="geometry">
            <mxPoint x="170" y="320" as="sourcePoint" />
            <mxPoint x="260" y="320" as="targetPoint" />
          </mxGeometry>
        </mxCell>
        <mxCell id="DMbctKs90b7bYzsLxnpM-166" value="Text" style="edgeLabel;html=1;align=center;verticalAlign=middle;resizable=0;points=[];" vertex="1" connectable="0" parent="DMbctKs90b7bYzsLxnpM-165">
          <mxGeometry x="0.0494" y="10" relative="1" as="geometry">
            <mxPoint x="-7" y="10" as="offset" />
          </mxGeometry>
        </mxCell>
        <mxCell id="DMbctKs90b7bYzsLxnpM-167" value="&lt;font style=&quot;font-size: 20px;&quot;&gt;Split&lt;/font&gt;" style="edgeLabel;html=1;align=center;verticalAlign=middle;resizable=0;points=[];" vertex="1" connectable="0" parent="DMbctKs90b7bYzsLxnpM-165">
          <mxGeometry x="-0.1358" y="2" relative="1" as="geometry">
            <mxPoint x="1" as="offset" />
          </mxGeometry>
        </mxCell>
        <mxCell id="DMbctKs90b7bYzsLxnpM-168" value="" style="endArrow=classic;html=1;rounded=0;" edge="1" parent="1">
          <mxGeometry width="50" height="50" relative="1" as="geometry">
            <mxPoint x="460" y="319.17" as="sourcePoint" />
            <mxPoint x="550" y="319.17" as="targetPoint" />
          </mxGeometry>
        </mxCell>
        <mxCell id="DMbctKs90b7bYzsLxnpM-169" value="Text" style="edgeLabel;html=1;align=center;verticalAlign=middle;resizable=0;points=[];" vertex="1" connectable="0" parent="DMbctKs90b7bYzsLxnpM-168">
          <mxGeometry x="0.0494" y="10" relative="1" as="geometry">
            <mxPoint x="-7" y="10" as="offset" />
          </mxGeometry>
        </mxCell>
        <mxCell id="DMbctKs90b7bYzsLxnpM-170" value="&lt;font style=&quot;font-size: 20px;&quot;&gt;Fuse&lt;/font&gt;" style="edgeLabel;html=1;align=center;verticalAlign=middle;resizable=0;points=[];" vertex="1" connectable="0" parent="DMbctKs90b7bYzsLxnpM-168">
          <mxGeometry x="-0.1358" y="2" relative="1" as="geometry">
            <mxPoint x="1" as="offset" />
          </mxGeometry>
        </mxCell>
        <mxCell id="DMbctKs90b7bYzsLxnpM-174" value="" style="endArrow=classic;html=1;rounded=0;" edge="1" parent="1">
          <mxGeometry width="50" height="50" relative="1" as="geometry">
            <mxPoint x="709" y="319.00000000000006" as="sourcePoint" />
            <mxPoint x="799" y="319.00000000000006" as="targetPoint" />
          </mxGeometry>
        </mxCell>
        <mxCell id="DMbctKs90b7bYzsLxnpM-175" value="Text" style="edgeLabel;html=1;align=center;verticalAlign=middle;resizable=0;points=[];" vertex="1" connectable="0" parent="DMbctKs90b7bYzsLxnpM-174">
          <mxGeometry x="0.0494" y="10" relative="1" as="geometry">
            <mxPoint x="-7" y="10" as="offset" />
          </mxGeometry>
        </mxCell>
        <mxCell id="DMbctKs90b7bYzsLxnpM-176" value="&lt;font style=&quot;font-size: 20px;&quot;&gt;Conv&lt;/font&gt;&lt;div&gt;&lt;font style=&quot;font-size: 20px;&quot;&gt;2:1&lt;/font&gt;&lt;/div&gt;" style="edgeLabel;html=1;align=center;verticalAlign=middle;resizable=0;points=[];" vertex="1" connectable="0" parent="DMbctKs90b7bYzsLxnpM-174">
          <mxGeometry x="-0.1358" y="2" relative="1" as="geometry">
            <mxPoint x="1" as="offset" />
          </mxGeometry>
        </mxCell>
      </root>
    </mxGraphModel>
  </diagram>
</mxfile>
